<svg xmlns="http://www.w3.org/2000/svg" width="44.637" height="34.221" viewBox="0 0 44.637 34.221">
  <g id="noun-rate-2407064-D40511" transform="translate(-37.5 -187.5)">
    <path id="Path_25275" data-name="Path 25275" d="M545.982,862.5a2.232,2.232,0,1,0,1.578.654A2.231,2.231,0,0,0,545.982,862.5Zm0,2.976a.744.744,0,1,1,.526-.218A.744.744,0,0,1,545.982,865.476Z" transform="translate(-486.164 -648.218)" fill="#323232"/>
    <path id="Path_25276" data-name="Path 25276" d="M73.953,303.859a8.171,8.171,0,0,0-5.931,13.8l-21.536-5.289h0A6.7,6.7,0,1,0,39.26,310.6l-.1-.024h0a.744.744,0,0,0-.9.542l-.744,2.976a.744.744,0,0,0,.545.9l18.012,4.424-2.748,8.245H44.2v1.488H70.977v-1.488H66.29L64,321.366l16.471,4.045h0a.733.733,0,0,0,.178.022.744.744,0,0,0,.721-.564l.744-2.976a.744.744,0,0,0-.544-.9l-4.958-1.218h0a8.178,8.178,0,0,0-2.658-15.915Zm-29.014-1.488v-1.428a5.2,5.2,0,0,1,0,10.3V309.81h1.488a.744.744,0,0,0,.744-.744v-2.976a.744.744,0,0,0-.744-.744h-3.72v-1.488h4.464v-1.488Zm-5.951,3.72a5.208,5.208,0,0,1,4.464-5.148v1.428H41.963a.744.744,0,0,0-.744.744v2.976a.744.744,0,0,0,.744.744h3.72v1.488H41.219v1.488h2.232v1.428a5.208,5.208,0,0,1-4.464-5.148Zm25.72,21.574H54.9l2.613-7.83,4.784,1.19Zm15.782-5.408-.383,1.533L39.148,313.73l.383-1.533Zm-6.536-3.52a6.7,6.7,0,1,1,4.732-1.963,6.695,6.695,0,0,1-4.732,1.963Z" transform="translate(0 -107.432)" fill="#323232"/>
    <path id="Path_25277" data-name="Path 25277" d="M884.97,487.5h-1.488v1.488h-1.488a.744.744,0,0,0-.744.744v2.976a.744.744,0,0,0,.744.744h3.72v1.488H881.25v1.488h2.232v1.488h1.488v-1.488h1.488a.744.744,0,0,0,.744-.744v-2.976a.744.744,0,0,0-.744-.744h-3.72v-1.488H887.2v-1.488H884.97Z" transform="translate(-810.273 -288.097)" fill="#323232"/>
    <path id="Path_25278" data-name="Path 25278" d="M918.75,1012.5h2.976v1.488H918.75Z" transform="translate(-846.285 -792.267)" fill="#323232"/>
    <path id="Path_25279" data-name="Path 25279" d="M1068.8,1012.5h1.488v1.488H1068.8Z" transform="translate(-990.382 -792.267)" fill="#323232"/>
    <path id="Path_25280" data-name="Path 25280" d="M112.5,1012.5h1.488v1.488H112.5Z" transform="translate(-72.024 -792.267)" fill="#323232"/>
    <path id="Path_25281" data-name="Path 25281" d="M937.5,225h1.488v5.952H937.5Z" transform="translate(-864.291 -36.012)" fill="#323232"/>
    <path id="Path_25282" data-name="Path 25282" d="M1012.5,187.5h1.488v5.951H1012.5Z" transform="translate(-936.315)" fill="#323232"/>
    <path id="Path_25283" data-name="Path 25283" d="M862.5,187.5h1.488v6.7H862.5Z" transform="translate(-792.267)" fill="#323232"/>
  </g>
</svg>
