<svg xmlns="http://www.w3.org/2000/svg" width="34.7" height="34.711" viewBox="0 0 34.7 34.711">
  <path id="noun-international-4718209-D40511" d="M62.745,52.21a13.694,13.694,0,0,0,0-5.8c3.952-6.107,4.989-11.07,2.766-13.3-1.968-1.962-6.1-1.39-11.332,1.569l.564,1c4.682-2.648,8.406-3.305,9.958-1.756,1.666,1.671.728,5.921-2.369,11a13.734,13.734,0,0,0-15.921-9.041c-6.108-3.947-11.074-4.987-13.3-2.763-1.97,1.975-1.388,6.12,1.6,11.378l1-.566c-2.672-4.7-3.338-8.443-1.783-10,1.672-1.667,5.922-.727,11,2.369a13.74,13.74,0,0,0,0,26.042c-5.079,3.1-9.329,4.035-11,2.37-1.546-1.553-.893-5.274,1.752-9.954l-1-.564c-2.957,5.231-3.528,9.359-1.565,11.328a4.425,4.425,0,0,0,3.247,1.152c2.567,0,6.066-1.343,10.049-3.919A13.733,13.733,0,0,0,62.332,53.7c3.1,5.078,4.035,9.328,2.37,11-1.592,1.589-5.426.869-10.251-1.923l-.573.991c3.312,1.919,6.192,2.9,8.386,2.9a4.425,4.425,0,0,0,3.247-1.153c2.222-2.226,1.184-7.191-2.767-13.3Zm-3.927.609-.465-.619q.845-.974,1.622-1.956.821,1.1,1.546,2.184a12.529,12.529,0,0,1-1.661,3.756l-.813-.812V53.506A1.164,1.164,0,0,0,58.818,52.819Zm-1.489-1.982v-1.85a1.168,1.168,0,0,0-.336-.813l-.724-.719a1.149,1.149,0,0,0-1.168-.29l-1.234.4-1.8-.435-.429-1.727.841-1.251h1.81l1.121.745c1.381,1.436,2.676,2.921,3.846,4.41q-.771.98-1.61,1.954Zm2.151-8.956a12.608,12.608,0,0,1,1.133,1.866l-1.665.951-2.539-.511-.261-.172c-.252-.261-.5-.522-.762-.779-.486-.486-.981-.959-1.478-1.425h0a1.088,1.088,0,0,0,.37-.025l1.84-.458,1.8.9a1.145,1.145,0,0,0,1.145-.07ZM61.075,44.8a12.486,12.486,0,0,1,.444,1.387q-.721,1.085-1.546,2.184c-.739-.93-1.522-1.857-2.345-2.771l1.112.223a1.179,1.179,0,0,0,.778-.136ZM60.7,49.308c.385-.507.76-1.015,1.114-1.52a12.2,12.2,0,0,1,0,3.04C61.461,50.323,61.086,49.815,60.7,49.308Zm-1.94-8.323-.326.217-1.793-.894a1.121,1.121,0,0,0-.8-.1L54,40.671l-1.031-.683L53.63,39h2.382a1.133,1.133,0,0,0,.409-.087,12.722,12.722,0,0,1,2.34,2.072Zm-4.211-3.131H53.63a1.154,1.154,0,0,0-.957.513l-.663.99h0a1.145,1.145,0,0,0-.183.589q-.6-.51-1.2-1a1.142,1.142,0,0,0-.953-1.231l-.8-.136q-.541-.4-1.08-.779h0a12.678,12.678,0,0,1,1.518-.1,12.523,12.523,0,0,1,5.239,1.145Zm-8.575-.694.405.718a1.113,1.113,0,0,0,.814.586l1.208.2c.266.2.532.4.8.608l-.246.367-1.89.472a1.133,1.133,0,0,0-.623.421l-1.515,2.025-2.1,1.05-2.329.463a1.146,1.146,0,0,0-.921,1.124v.939a1.155,1.155,0,0,0,.515.958l1.2.806v1.058L38.8,47.708l-1.562-2a12.646,12.646,0,0,1,8.734-8.543ZM36.712,49.308a12.646,12.646,0,0,1,.191-2.173l.988,1.267a1.149,1.149,0,0,0,.4.329l2.494,1.251a1.165,1.165,0,0,0,.511.12h.016a1.055,1.055,0,0,0-.015.115V51.94a1.154,1.154,0,0,0,.336.8l.912.912h0a1.148,1.148,0,0,0,.3.215l.745.373v1.851a1.124,1.124,0,0,0,.057.362l1.022,3.065h0a1.152,1.152,0,0,0,.729.725l.7.229a1.145,1.145,0,0,0,1.5-1.088V57.68l1.657-.83a1.138,1.138,0,0,0,.633-1.017l.006-.956,1-.331a1.141,1.141,0,0,0,.75-.81l.321-1.287h0a1.145,1.145,0,0,0-1.111-1.423h-.668l-.792-1.2h0a1.142,1.142,0,0,0-.957-.515H46.687l-1.231-1.246a1.145,1.145,0,0,0-1.411-.172l-1.606.979V47.9a1.155,1.155,0,0,0-.515-.958l-1.2-.8V45.2l2.348-.467a1.162,1.162,0,0,0,.271-.1l2.1-1.051a1.067,1.067,0,0,0,.4-.34l1.514-2.022,1.873-.468h0a1.091,1.091,0,0,0,.681-.474l.191-.286c1.153.941,2.3,1.947,3.417,3.015H52.486a1.154,1.154,0,0,0-.957.512l-.847,1.266a1.155,1.155,0,0,0-.145.9l.424,1.728h0a1.154,1.154,0,0,0,.844.834l1.773.43h0a1.1,1.1,0,0,0,.647-.018l1.23-.4.73.727v1.85a1.164,1.164,0,0,0,.229.687l.463.616c-.738.824-1.5,1.638-2.3,2.433a55.62,55.62,0,0,1-8.386,6.943,12.621,12.621,0,0,1-9.479-12.208ZM44.1,53.219l-.745-.373-.916-.912V50.212l2.2-1.344,1.234,1.245a1.152,1.152,0,0,0,.812.34H48.43l.792,1.2a1.145,1.145,0,0,0,.957.515h.667l-.321,1.288-1,.33a1.145,1.145,0,0,0-.785,1.08l-.006.956-1.657.83a1.138,1.138,0,0,0-.633,1.025v1.708l-.7-.229L44.73,56.095V54.243a1.139,1.139,0,0,0-.63-1.025Zm5.211,8.689a12.675,12.675,0,0,1-1.521-.1,58.121,58.121,0,0,0,7.6-6.43c.755-.755,1.486-1.527,2.191-2.309l.325.432v1.867a1.149,1.149,0,0,0,.334.808l.946.946a12.58,12.58,0,0,1-9.87,4.781Z" transform="translate(-31.962 -31.958)" fill="#323232"/>
</svg>
