<svg xmlns="http://www.w3.org/2000/svg" width="44.637" height="32.418" viewBox="0 0 44.637 32.418">
  <g id="noun-delivery-1968660-D40511" transform="translate(-42.875 -194.763)">
    <path id="Path_25284" data-name="Path 25284" d="M293.673,343.789a.922.922,0,0,0,.666.272.961.961,0,0,0,.666-.272.935.935,0,0,0-.019-1.323l-2.253-2.234v-4.6a.939.939,0,1,0-1.877,0v4.984a.988.988,0,0,0,.291.666Z" transform="translate(-238.052 -134.327)" fill="#323232"/>
    <path id="Path_25285" data-name="Path 25285" d="M84.575,211.93h-.216l-4-7.48a4.846,4.846,0,0,0-4.317-2.562h-.019l-7.912.009a.95.95,0,0,0-.957.929v9.1H63.57a10.952,10.952,0,0,0,1.727-5.96,11.211,11.211,0,0,0-22.422,0,11.032,11.032,0,0,0,1.727,5.96h-.516a1,1,0,0,0-.967.976v9.461a.95.95,0,0,0,.967.92h2.271a4.752,4.752,0,0,0,9.348,0H75.789a4.74,4.74,0,0,0,9.329,0h1.427a.95.95,0,0,0,.967-.92v-7.49a2.962,2.962,0,0,0-2.938-2.947Zm-15.542-8.166h7a2.989,2.989,0,0,1,2.665,1.567l3.529,6.6h-13.2Zm-14.942-7.1A9.339,9.339,0,1,1,44.752,206,9.351,9.351,0,0,1,54.091,196.659Zm-3.06,28.664a2.872,2.872,0,1,1,2.872-2.872A2.872,2.872,0,0,1,51.031,225.323Zm0-7.631a4.828,4.828,0,0,0-4.636,3.717H45.005v-7.6h1.089a11.2,11.2,0,0,0,15.993,0h5.068v7.6H55.667a4.811,4.811,0,0,0-4.636-3.717Zm29.424,7.631a2.872,2.872,0,1,1,2.872-2.872A2.872,2.872,0,0,1,80.455,225.323Zm5.19-3.914h-.563a4.744,4.744,0,0,0-9.264,0H69.033v-7.6H84.575a1.1,1.1,0,0,1,1.07,1.079Z" transform="translate(0 0)" fill="#323232"/>
  </g>
</svg>
