<svg xmlns="http://www.w3.org/2000/svg" width="39.534" height="46.6" viewBox="0 0 39.534 46.6">
  <g id="noun-trust-5732968-D40511" transform="translate(-122.682 -37.547)">
    <path id="Path_25286" data-name="Path 25286" d="M491.679,192.922a.746.746,0,0,0,.256.047h.109a.746.746,0,0,0,.256-.047,7.142,7.142,0,0,0,4.358-4.8,2.545,2.545,0,0,0-.792-2.509,2.775,2.775,0,0,0-2.1-.7,2.305,2.305,0,0,1-3.558,0,2.775,2.775,0,0,0-2.1.7,2.545,2.545,0,0,0-.792,2.509,7.143,7.143,0,0,0,4.358,4.8Zm-2.563-6.121a1.256,1.256,0,0,1,.808-.35.443.443,0,0,1,.1.008,2.206,2.206,0,0,1,1.282.823.785.785,0,0,0,.575.3h.194a.79.79,0,0,0,.575-.3,2.256,2.256,0,0,1,1.29-.823,1.209,1.209,0,0,1,.917.342c.1.085.4.334.264,1.041a3.161,3.161,0,1,1-6.277,0c-.124-.715.171-.963.272-1.049Z" transform="translate(-349.478 -141.247)" fill="#323232"/>
    <path id="Path_25287" data-name="Path 25287" d="M377.249,57.02a.718.718,0,0,0,.466,0c3.962-1.251,6.712-3.395,8.18-6.385,2.369-4.816.513-10.013.427-10.231a.768.768,0,0,0-.8-.5c-3.542.326-7.582-2.206-7.628-2.229a.767.767,0,0,0-.831,0c-.039.023-4.078,2.556-7.628,2.229a.768.768,0,0,0-.8.5c-.078.218-1.942,5.415.427,10.231,1.476,2.983,4.226,5.135,8.187,6.385Zm-7.317-15.544a16.294,16.294,0,0,0,7.551-2.245,16.109,16.109,0,0,0,7.551,2.245,12.531,12.531,0,0,1-.536,8.483c-1.243,2.525-3.6,4.373-7.015,5.5-3.41-1.126-5.764-2.975-7.015-5.5a12.579,12.579,0,0,1-.536-8.483Z" transform="translate(-235.024)" fill="#323232"/>
    <path id="Path_25288" data-name="Path 25288" d="M161.893,523.442l-7.271-9.749a1.736,1.736,0,0,0-2.4-.365l-2.012,1.445a1.7,1.7,0,0,0-.691,1.126,1.6,1.6,0,0,0,.07.769,10.189,10.189,0,0,1-3.434.4,13.211,13.211,0,0,0-3.7.3,12.92,12.92,0,0,0-3.69-.3,10.045,10.045,0,0,1-3.434-.412,1.609,1.609,0,0,0,.062-.769,1.7,1.7,0,0,0-.691-1.126l-2.012-1.445a1.736,1.736,0,0,0-2.4.365l-7.271,9.757a1.7,1.7,0,0,0-.318,1.274,1.722,1.722,0,0,0,.691,1.126l2.012,1.445a1.737,1.737,0,0,0,2.4-.365l.078-.109a22.507,22.507,0,0,0,2.486,3.566,1.939,1.939,0,0,0-.412.994,3.227,3.227,0,0,0,1.01,2.571,2.954,2.954,0,0,0,2.012.808,1.626,1.626,0,0,0,.194-.016,3.269,3.269,0,0,0,.955,1.717,3.006,3.006,0,0,0,2.074.831h.031a3.222,3.222,0,0,0,.924,1.561,2.892,2.892,0,0,0,1.973.777,2.426,2.426,0,0,0,.4-.031,3.632,3.632,0,0,0,1.647-.792,14.078,14.078,0,0,0,4.692,1.1,3.887,3.887,0,0,0,1.756-.357,3.152,3.152,0,0,0,1.6-2.082,8.125,8.125,0,0,0,.839.054,3.967,3.967,0,0,0,1.725-.342,3.22,3.22,0,0,0,1.662-2.191,2.656,2.656,0,0,0,.085-.924c.047,0,.093.008.14.008a3.966,3.966,0,0,0,1.725-.342,3.259,3.259,0,0,0,1.662-2.191,3.442,3.442,0,0,0-1.088-3.232,4.324,4.324,0,0,1,.932-1.616l.171.233a1.737,1.737,0,0,0,2.4.365l2.012-1.445a1.7,1.7,0,0,0,.691-1.126,1.61,1.61,0,0,0-.3-1.266Zm-35.578,2.587-2.012-1.445a.123.123,0,0,1-.062-.1.132.132,0,0,1,.031-.109l7.271-9.757a.174.174,0,0,1,.249-.031l2.012,1.445a.123.123,0,0,1,.062.1.132.132,0,0,1-.031.109l-7.271,9.749a.182.182,0,0,1-.249.039Zm5.725,6.782a1.723,1.723,0,0,1-.528-1.321c.008-.132.381-.653,1.88-1.313a1.249,1.249,0,0,1,1.46.35,1.194,1.194,0,0,1,.21,1.064,4.194,4.194,0,0,0-1.756,1.546,1.071,1.071,0,0,1-1.266-.326Zm2.61,1.119c.008-.148.388-.684,1.965-1.383a1.264,1.264,0,0,1,.528-.109,1.314,1.314,0,0,1,1.025.489,1.26,1.26,0,0,1-.085,1.678,3.289,3.289,0,0,1-1.678,1.119,1.461,1.461,0,0,1-1.2-.4,1.815,1.815,0,0,1-.552-1.4Zm4.684,4.133a1.353,1.353,0,0,1-1.119-.365,1.679,1.679,0,0,1-.5-.854,7,7,0,0,0,1.468-1.157,2.8,2.8,0,0,0,.482-.668,1.24,1.24,0,0,1,1.344.388,1.172,1.172,0,0,1-.085,1.577,3.437,3.437,0,0,1-1.592,1.08Zm16.259-6.96a1.7,1.7,0,0,1-.839,1.227c-.715.342-2.408.4-6.432-1.29a.778.778,0,0,0-.6,1.437,23.585,23.585,0,0,0,4.226,1.391,1.1,1.1,0,0,1,.039.684c-.21.7-.435,1.033-.839,1.227-.715.342-2.416.4-6.44-1.289a.778.778,0,0,0-.6,1.437,25.657,25.657,0,0,0,3.6,1.243,1.568,1.568,0,0,1-.738.979c-.575.28-1.833.388-4.552-.559a2.7,2.7,0,0,0-.194-3.169,2.827,2.827,0,0,0-2.229-1.018,2.785,2.785,0,0,0-.606-1.46,2.867,2.867,0,0,0-2.727-1.01,2.762,2.762,0,0,0-3.876-2.175,10.8,10.8,0,0,0-1.2.614,19.746,19.746,0,0,1-2.633-3.946l5.523-7.411a12.013,12.013,0,0,0,4.4.606c.14-.008.28-.008.419-.008h-.008a26.519,26.519,0,0,1-4.257,1.88,1.733,1.733,0,0,0-1,.955,1.666,1.666,0,0,0,.023,1.336c.932,2.02,2.789,2.68,4.948,1.771,4.7-1.973,7.139-.016,9.718,2.051,1.7,1.359,3.449,2.766,5.772,2.766.117,0,.249-.016.365-.023.319.334.94,1.072.738,1.756Zm-1.072-3.294h-.039c-1.787,0-3.2-1.134-4.808-2.424-2.556-2.051-5.741-4.6-11.287-2.268-1.414.6-2.354.28-2.936-.987a.1.1,0,0,1,0-.085.17.17,0,0,1,.1-.093,28.03,28.03,0,0,0,4.506-2,10.784,10.784,0,0,1,6.012-1.344,11.982,11.982,0,0,0,4.4-.606L156,525.423a5.73,5.73,0,0,0-1.484,2.385Zm6.09-3.232-2.012,1.445a.183.183,0,0,1-.249-.039l-7.271-9.757a.157.157,0,0,1-.031-.109.146.146,0,0,1,.062-.1l2.012-1.445a.179.179,0,0,1,.109-.031.166.166,0,0,1,.14.07l7.271,9.757a.168.168,0,0,1,.031.109A.18.18,0,0,1,160.611,524.576Z" transform="translate(0 -455.748)" fill="#323232"/>
  </g>
</svg>
